<svg width="240" height="48" viewBox="0 0 240 48" fill="none" xmlns="http://www.w3.org/2000/svg">
<g clip-path="url(#clip0_523_2306)">
<path d="M72.1092 36.3572V11.9253H76.7163V32.1689H87.8851V36.3572H72.1092Z" fill="#283A7C"/>
<path d="M97.8322 36.8459C96.1104 36.8459 94.563 36.4969 93.1902 35.7988C91.8172 35.1008 90.7353 34.0886 89.9442 32.7623C89.1531 31.436 88.7575 29.8421 88.7575 27.9806V27.4222C88.7575 25.5607 89.1531 23.9668 89.9442 22.6405C90.7353 21.3142 91.8172 20.302 93.1902 19.6039C94.563 18.9059 96.1104 18.5569 97.8322 18.5569C99.5541 18.5569 101.101 18.9059 102.474 19.6039C103.847 20.302 104.929 21.3142 105.72 22.6405C106.511 23.9668 106.907 25.5607 106.907 27.4222V27.9806C106.907 29.8421 106.511 31.436 105.72 32.7623C104.929 34.0886 103.847 35.1008 102.474 35.7988C101.101 36.4969 99.5541 36.8459 97.8322 36.8459ZM97.8322 32.9368C99.1818 32.9368 100.299 32.5063 101.183 31.6454C102.067 30.7612 102.509 29.5046 102.509 27.8759V27.5269C102.509 25.898 102.067 24.6532 101.183 23.7922C100.322 22.9081 99.205 22.4659 97.8322 22.4659C96.4827 22.4659 95.3658 22.9081 94.4815 23.7922C93.5973 24.6532 93.1552 25.898 93.1552 27.5269V27.8759C93.1552 29.5046 93.5973 30.7612 94.4815 31.6454C95.3658 32.5063 96.4827 32.9368 97.8322 32.9368Z" fill="#283A7C"/>
<path d="M108.558 27.7712V27.2128C108.558 25.3978 108.919 23.8504 109.64 22.5706C110.361 21.2677 111.315 20.2787 112.502 19.6039C113.712 18.9059 115.027 18.5569 116.446 18.5569C118.028 18.5569 119.227 18.836 120.041 19.3945C120.855 19.9529 121.449 20.5346 121.821 21.1396H122.449V19.0454H126.777V39.4286C126.777 40.6154 126.428 41.5577 125.73 42.2558C125.032 42.9772 124.101 43.3378 122.938 43.3378H111.35V39.4985H121.402C122.054 39.4985 122.379 39.1495 122.379 38.4514V33.949H121.751C121.519 34.3213 121.193 34.7051 120.774 35.1008C120.355 35.473 119.797 35.7872 119.099 36.0431C118.401 36.299 117.516 36.4271 116.446 36.4271C115.027 36.4271 113.712 36.0896 112.502 35.4149C111.315 34.7168 110.361 33.7279 109.64 32.4481C108.919 31.1452 108.558 29.5861 108.558 27.7712ZM117.703 32.5877C119.052 32.5877 120.181 32.1572 121.088 31.2964C121.996 30.4354 122.449 29.2255 122.449 27.6665V27.3175C122.449 25.7351 121.996 24.5252 121.088 23.6875C120.204 22.8266 119.075 22.3961 117.703 22.3961C116.353 22.3961 115.224 22.8266 114.317 23.6875C113.409 24.5252 112.956 25.7351 112.956 27.3175V27.6665C112.956 29.2255 113.409 30.4354 114.317 31.2964C115.224 32.1572 116.353 32.5877 117.703 32.5877Z" fill="#283A7C"/>
<path d="M138.319 36.8459C136.598 36.8459 135.05 36.4969 133.677 35.7988C132.304 35.1008 131.223 34.0886 130.431 32.7623C129.64 31.436 129.245 29.8421 129.245 27.9806V27.4222C129.245 25.5607 129.64 23.9668 130.431 22.6405C131.223 21.3142 132.304 20.302 133.677 19.6039C135.05 18.9059 136.598 18.5569 138.319 18.5569C140.041 18.5569 141.589 18.9059 142.962 19.6039C144.334 20.302 145.416 21.3142 146.208 22.6405C146.999 23.9668 147.394 25.5607 147.394 27.4222V27.9806C147.394 29.8421 146.999 31.436 146.208 32.7623C145.416 34.0886 144.334 35.1008 142.962 35.7988C141.589 36.4969 140.041 36.8459 138.319 36.8459ZM138.319 32.9368C139.669 32.9368 140.786 32.5063 141.67 31.6454C142.554 30.7612 142.996 29.5046 142.996 27.8759V27.5269C142.996 25.898 142.554 24.6532 141.67 23.7922C140.809 22.9081 139.692 22.4659 138.319 22.4659C136.97 22.4659 135.853 22.9081 134.969 23.7922C134.085 24.6532 133.642 25.898 133.642 27.5269V27.8759C133.642 29.5046 134.085 30.7612 134.969 31.6454C135.853 32.5063 136.97 32.9368 138.319 32.9368Z" fill="#283A7C"/>
<path d="M149.883 36.3571V19.0453H154.281V36.3571H149.883ZM152.082 17.021C151.29 17.021 150.616 16.765 150.057 16.253C149.522 15.7412 149.255 15.0664 149.255 14.2287C149.255 13.3911 149.522 12.7163 150.057 12.2044C150.616 11.6925 151.29 11.4365 152.082 11.4365C152.896 11.4365 153.571 11.6925 154.105 12.2044C154.641 12.7163 154.909 13.3911 154.909 14.2287C154.909 15.0664 154.641 15.7412 154.105 16.253C153.571 16.765 152.896 17.021 152.082 17.021Z" fill="#283A7C"/>
<path d="M157.584 43.3378V19.0454H161.912V21.1396H162.54C162.935 20.4649 163.551 19.8715 164.39 19.3595C165.227 18.8245 166.425 18.5569 167.985 18.5569C169.38 18.5569 170.672 18.9059 171.858 19.6039C173.046 20.2787 174 21.2792 174.72 22.6055C175.442 23.9318 175.803 25.5374 175.803 27.4222V27.9806C175.803 29.8654 175.442 31.4708 174.72 32.7971C174 34.1234 173.046 35.1356 171.858 35.8337C170.672 36.5084 169.38 36.8459 167.985 36.8459C166.938 36.8459 166.053 36.718 165.332 36.4619C164.634 36.2293 164.064 35.9267 163.622 35.5544C163.203 35.1589 162.866 34.7633 162.609 34.3678H161.981V43.3378H157.584ZM166.658 33.0065C168.032 33.0065 169.16 32.5762 170.043 31.7152C170.951 30.8309 171.405 29.5513 171.405 27.8759V27.5269C171.405 25.8515 170.951 24.5834 170.043 23.7224C169.136 22.8382 168.008 22.3961 166.658 22.3961C165.309 22.3961 164.18 22.8382 163.272 23.7224C162.365 24.5834 161.912 25.8515 161.912 27.5269V27.8759C161.912 29.5513 162.365 30.8309 163.272 31.7152C164.18 32.5762 165.309 33.0065 166.658 33.0065Z" fill="#283A7C"/>
<path d="M185.46 36.8459C183.202 36.8459 181.353 36.3572 179.91 35.38C178.468 34.4027 177.595 33.0065 177.292 31.1917L181.341 30.1445C181.504 30.959 181.771 31.5988 182.145 32.0642C182.539 32.5295 183.016 32.867 183.576 33.0764C184.156 33.2626 184.785 33.3556 185.46 33.3556C186.484 33.3556 187.24 33.1811 187.728 32.8321C188.217 32.4598 188.461 32.006 188.461 31.4708C188.461 30.9356 188.229 30.5285 187.764 30.2492C187.297 29.9468 186.553 29.7025 185.53 29.5163L184.552 29.3417C183.342 29.1091 182.238 28.795 181.237 28.3994C180.235 27.9806 179.433 27.4105 178.828 26.6891C178.224 25.9679 177.921 25.0372 177.921 23.897C177.921 22.175 178.549 20.8604 179.806 19.9529C181.062 19.0222 182.715 18.5569 184.762 18.5569C186.693 18.5569 188.299 18.9872 189.579 19.8482C190.858 20.7092 191.695 21.8377 192.091 23.2339L188.008 24.4903C187.822 23.6062 187.438 22.9778 186.856 22.6055C186.297 22.2332 185.599 22.0471 184.762 22.0471C183.924 22.0471 183.285 22.1984 182.842 22.5008C182.4 22.7801 182.179 23.1757 182.179 23.6875C182.179 24.2459 182.412 24.6649 182.877 24.944C183.342 25.1999 183.97 25.3978 184.762 25.5374L185.739 25.7119C187.042 25.9445 188.217 26.2588 189.264 26.6543C190.335 27.0266 191.172 27.5734 191.778 28.2947C192.405 28.9928 192.72 29.9468 192.72 31.1567C192.72 32.9717 192.057 34.3795 190.731 35.38C189.427 36.3572 187.671 36.8459 185.46 36.8459Z" fill="#283A7C"/>
<path d="M201.6 36.6365C200.25 36.6365 199.064 36.334 198.039 35.729C197.039 35.1008 196.26 34.2398 195.7 33.1462C195.142 32.0525 194.863 30.7961 194.863 29.3767V19.0454H199.262V29.0276C199.262 30.3307 199.575 31.3079 200.203 31.9595C200.854 32.611 201.774 32.9368 202.961 32.9368C204.311 32.9368 205.358 32.4947 206.102 31.6105C206.847 30.703 207.219 29.4464 207.219 27.841V19.0454H211.617V36.3572H207.288V34.0886H206.661C206.382 34.6703 205.857 35.2403 205.091 35.7988C204.323 36.3572 203.158 36.6365 201.6 36.6365Z" fill="#283A7C"/>
<path d="M214.939 36.3571V19.0453H219.267V20.93H219.895C220.198 20.3483 220.699 19.8481 221.397 19.4293C222.094 18.9871 223.014 18.7661 224.154 18.7661C225.387 18.7661 226.377 19.0105 227.121 19.499C227.865 19.9645 228.435 20.581 228.831 21.349H229.459C229.855 20.6044 230.413 19.9877 231.135 19.499C231.856 19.0105 232.879 18.7661 234.205 18.7661C235.276 18.7661 236.242 18.9988 237.103 19.4642C237.987 19.9063 238.686 20.5927 239.197 21.5234C239.733 22.4309 240 23.5826 240 24.9788V36.3571H235.602V25.2929C235.602 24.3389 235.357 23.6293 234.87 23.1638C234.381 22.6753 233.694 22.4309 232.81 22.4309C231.81 22.4309 231.03 22.7566 230.472 23.4082C229.936 24.0364 229.669 24.9439 229.669 26.1305V36.3571H225.271V25.2929C225.271 24.3389 225.027 23.6293 224.538 23.1638C224.049 22.6753 223.363 22.4309 222.478 22.4309C221.478 22.4309 220.698 22.7566 220.14 23.4082C219.604 24.0364 219.337 24.9439 219.337 26.1305V36.3571H214.939Z" fill="#283A7C"/>
<path d="M58.1714 23.2691C58.1714 17.0977 55.7198 11.1791 51.356 6.81534C46.9922 2.45156 41.0736 8.09273e-07 34.9023 0C28.731 -8.09271e-07 22.8125 2.45156 18.4487 6.81534C14.0849 11.1791 11.6333 17.0977 11.6333 23.2691H18.905C21.3146 23.2691 23.1938 21.2498 24.0764 19.0075C24.6558 17.5354 25.5351 16.1826 26.6754 15.0422C28.8573 12.8603 31.8167 11.6345 34.9023 11.6345C37.988 11.6345 40.9473 12.8603 43.1292 15.0422C45.3111 17.2241 46.5368 20.1834 46.5368 23.2691H58.1714Z" fill="url(#paint0_linear_523_2306)"/>
<path d="M44.7667 32.1736C45.9361 29.3505 46.5381 26.3247 46.5381 23.269H58.1713C58.1713 36.1201 47.7534 46.5379 34.9023 46.5379C32.8897 46.5379 30.9367 46.2825 29.0743 45.8022C30.1281 45.5307 31.1638 45.1849 32.1736 44.7667C34.9968 43.5973 37.5619 41.8834 39.7227 39.7227C41.8834 37.5619 43.5975 34.9968 44.7667 32.1736Z" fill="#FBCF8E"/>
<path d="M0 23.2688C-4.37149e-07 26.3246 0.601871 29.3504 1.77125 32.1735C2.94063 34.9967 4.65461 37.5618 6.81534 39.7226C8.97606 41.8832 11.5412 43.5972 14.3643 44.7666C17.1874 45.936 20.2133 46.5378 23.2691 46.5378C26.3247 46.5378 29.3505 45.936 32.1737 44.7666C34.9968 43.5972 37.562 41.8832 39.7227 39.7226C41.8835 37.5618 43.5973 34.9967 44.7667 32.1735C45.9361 29.3504 46.5381 26.3246 46.5381 23.2688H39.2664C36.8568 23.2688 34.9776 25.2881 34.095 27.5301C34.0699 27.594 34.0442 27.6576 34.0179 27.7212C33.4332 29.1327 32.5763 30.4154 31.4958 31.4957C30.4155 32.576 29.1328 33.4331 27.7213 34.0178C26.3098 34.6025 24.797 34.9034 23.2691 34.9034C21.7412 34.9034 20.2283 34.6025 18.8168 34.0178C17.4051 33.4331 16.1226 32.576 15.0422 31.4957C13.9618 30.4154 13.1048 29.1327 12.5201 27.7212C11.9354 26.3096 11.6345 24.7967 11.6345 23.2688H0Z" fill="url(#paint1_linear_523_2306)"/>
<path d="M0.00238037 23.2691C0.00238037 10.4179 10.4202 0 23.2713 0C25.2834 0 27.2358 0.255369 29.098 0.735484C25.1022 1.76486 21.4161 3.84803 18.4486 6.81536C14.0849 11.1791 11.6334 17.0977 11.6334 23.2691H0.00238037Z" fill="#73E5E2"/>
</g>
<defs>
<linearGradient id="paint0_linear_523_2306" x1="58.1714" y1="11.6345" x2="11.6333" y2="11.6345" gradientUnits="userSpaceOnUse">
<stop stop-color="#73E5E2"/>
<stop offset="1" stop-color="#394F87"/>
</linearGradient>
<linearGradient id="paint1_linear_523_2306" x1="1.52568e-06" y1="34.9034" x2="46.5381" y2="34.9034" gradientUnits="userSpaceOnUse">
<stop stop-color="#FBDC8E"/>
<stop offset="1" stop-color="#FB958E"/>
</linearGradient>
<clipPath id="clip0_523_2306">
<rect width="240" height="48" fill="white"/>
</clipPath>
</defs>
</svg>
