<svg width="272" height="48" viewBox="0 0 272 48" fill="none" xmlns="http://www.w3.org/2000/svg">
<path d="M40.8929 36.7902H55.0141L20.033 1.58032H5.91162L40.8929 36.7902Z" fill="#7476ED"/>
<path d="M27.2878 1.58032L61.0091 35.522V1.58032H51.8835V12.2963L41.237 1.58032L27.2878 1.58032Z" fill="#E56F8C"/>
<path d="M0 2.75903V36.7901H9.12555V26.074L19.7719 36.7901H33.8101L0 2.75903Z" fill="#64C2DB"/>
<path d="M83.0303 31.4959H91.2067V36.3456H76.7884V10.5537H83.0303V31.4959Z" fill="#283A7C"/>
<path d="M102.36 36.6398C100.365 36.6398 98.5641 36.2111 96.9581 35.3537C95.3763 34.4965 94.1231 33.2718 93.1983 31.6798C92.2981 30.0876 91.8479 28.2261 91.8479 26.0951C91.8479 23.9887 92.3101 22.1393 93.2349 20.5473C94.1597 18.9306 95.425 17.6937 97.0311 16.8365C98.6373 15.9792 100.438 15.5505 102.433 15.5505C104.429 15.5505 106.23 15.9792 107.836 16.8365C109.442 17.6937 110.707 18.9306 111.632 20.5473C112.557 22.1393 113.019 23.9887 113.019 26.0951C113.019 28.2015 112.545 30.0631 111.595 31.6798C110.671 33.2718 109.393 34.4965 107.763 35.3537C106.157 36.2111 104.356 36.6398 102.36 36.6398ZM102.36 31.2021C103.553 31.2021 104.563 30.7612 105.39 29.8794C106.242 28.9976 106.668 27.7363 106.668 26.0951C106.668 24.454 106.254 23.1927 105.427 22.3109C104.624 21.4291 103.626 20.9882 102.433 20.9882C101.217 20.9882 100.207 21.4291 99.4038 22.3109C98.6007 23.1681 98.1992 24.4296 98.1992 26.0951C98.1992 27.7363 98.5885 28.9976 99.3673 29.8794C100.17 30.7612 101.168 31.2021 102.36 31.2021Z" fill="#283A7C"/>
<path d="M122.974 15.5505C124.41 15.5505 125.663 15.8445 126.734 16.4323C127.829 17.0202 128.668 17.7918 129.252 18.747V15.8445H135.494V36.3091C135.494 38.1951 135.117 39.8974 134.363 41.4159C133.633 42.9591 132.501 44.1838 130.968 45.0901C129.459 45.9964 127.573 46.4495 125.31 46.4495C122.292 46.4495 119.847 45.7269 117.973 44.2817C116.099 42.8611 115.029 40.9262 114.761 38.4767H120.93C121.124 39.2606 121.587 39.8728 122.317 40.3137C123.047 40.7791 123.947 41.0119 125.018 41.0119C126.308 41.0119 127.33 40.6323 128.084 39.8728C128.863 39.1381 129.252 37.9502 129.252 36.3091V33.4065C128.644 34.3617 127.804 35.1455 126.734 35.758C125.663 36.3457 124.41 36.6398 122.974 36.6398C121.295 36.6398 119.774 36.2111 118.411 35.3537C117.048 34.4719 115.965 33.2351 115.163 31.643C114.384 30.0264 113.994 28.1649 113.994 26.0584C113.994 23.9519 114.384 22.1027 115.163 20.5105C115.965 18.9185 117.048 17.6937 118.411 16.8365C119.774 15.9792 121.295 15.5505 122.974 15.5505ZM129.252 26.0951C129.252 24.5276 128.814 23.2906 127.938 22.3843C127.087 21.478 126.04 21.0248 124.799 21.0248C123.558 21.0248 122.499 21.478 121.623 22.3843C120.772 23.2661 120.346 24.4908 120.346 26.0584C120.346 27.6261 120.772 28.8751 121.623 29.806C122.499 30.7123 123.558 31.1653 124.799 31.1653C126.04 31.1653 127.087 30.7123 127.938 29.806C128.814 28.8997 129.252 27.6627 129.252 26.0951Z" fill="#283A7C"/>
<path d="M148.186 36.6398C146.191 36.6398 144.39 36.2111 142.784 35.3537C141.202 34.4965 139.949 33.2718 139.024 31.6798C138.124 30.0876 137.674 28.2261 137.674 26.0951C137.674 23.9887 138.136 22.1393 139.061 20.5473C139.986 18.9306 141.251 17.6937 142.857 16.8365C144.463 15.9792 146.264 15.5505 148.259 15.5505C150.255 15.5505 152.056 15.9792 153.662 16.8365C155.268 17.6937 156.533 18.9306 157.458 20.5473C158.383 22.1393 158.845 23.9887 158.845 26.0951C158.845 28.2015 158.37 30.0631 157.421 31.6798C156.497 33.2718 155.219 34.4965 153.589 35.3537C151.982 36.2111 150.182 36.6398 148.186 36.6398ZM148.186 31.2021C149.379 31.2021 150.389 30.7612 151.216 29.8794C152.068 28.9976 152.494 27.7363 152.494 26.0951C152.494 24.454 152.08 23.1927 151.252 22.3109C150.449 21.4291 149.452 20.9882 148.259 20.9882C147.043 20.9882 146.033 21.4291 145.23 22.3109C144.427 23.1681 144.025 24.4296 144.025 26.0951C144.025 27.7363 144.415 28.9976 145.193 29.8794C145.996 30.7612 146.994 31.2021 148.186 31.2021Z" fill="#283A7C"/>
<path d="M164.201 13.7133C163.106 13.7133 162.205 13.3949 161.499 12.758C160.818 12.0967 160.477 11.2884 160.477 10.3331C160.477 9.3534 160.818 8.5451 161.499 7.90826C162.205 7.24693 163.106 6.91626 164.201 6.91626C165.271 6.91626 166.147 7.24693 166.829 7.90826C167.534 8.5451 167.887 9.3534 167.887 10.3331C167.887 11.2884 167.534 12.0967 166.829 12.758C166.147 13.3949 165.271 13.7133 164.201 13.7133ZM167.303 15.8443V36.3455H161.061V15.8443H167.303Z" fill="#283A7C"/>
<path d="M176.973 18.747C177.582 17.7918 178.421 17.0202 179.492 16.4323C180.562 15.8445 181.816 15.5505 183.252 15.5505C184.932 15.5505 186.452 15.9792 187.814 16.8365C189.178 17.6937 190.248 18.9185 191.027 20.5105C191.831 22.1027 192.232 23.9519 192.232 26.0584C192.232 28.1649 191.831 30.0264 191.027 31.643C190.248 33.2351 189.178 34.4719 187.814 35.3537C186.452 36.2111 184.932 36.6398 183.252 36.6398C181.841 36.6398 180.587 36.3457 179.492 35.758C178.421 35.1701 177.582 34.4108 176.973 33.4799V46.1189H170.732V15.8445H176.973V18.747ZM185.88 26.0584C185.88 24.4908 185.442 23.2661 184.566 22.3843C183.715 21.478 182.655 21.0248 181.39 21.0248C180.149 21.0248 179.091 21.478 178.215 22.3843C177.363 23.2906 176.938 24.5276 176.938 26.0951C176.938 27.6627 177.363 28.8997 178.215 29.806C179.091 30.7123 180.149 31.1653 181.39 31.1653C182.632 31.1653 183.69 30.7123 184.566 29.806C185.442 28.8751 185.88 27.6261 185.88 26.0584Z" fill="#283A7C"/>
<path d="M202.696 36.6398C200.92 36.6398 199.339 36.3336 197.952 35.7212C196.564 35.1089 195.469 34.276 194.667 33.2229C193.864 32.1452 193.413 30.9448 193.316 29.6222H199.485C199.558 30.3326 199.886 30.9082 200.471 31.3491C201.054 31.79 201.773 32.0104 202.624 32.0104C203.403 32.0104 203.998 31.8634 204.413 31.5695C204.851 31.2511 205.07 30.8469 205.07 30.3571C205.07 29.7692 204.765 29.3406 204.157 29.0711C203.548 28.7772 202.562 28.4588 201.201 28.1159C199.74 27.7729 198.523 27.4177 197.55 27.0504C196.576 26.6584 195.738 26.0584 195.031 25.2501C194.326 24.4174 193.973 23.3029 193.973 21.9066C193.973 20.731 194.289 19.6655 194.922 18.7102C195.579 17.7305 196.529 16.9589 197.769 16.3956C199.035 15.8322 200.531 15.5505 202.258 15.5505C204.814 15.5505 206.822 16.1874 208.281 17.4611C209.767 18.7347 210.618 20.4248 210.837 22.5313H205.07C204.971 21.8209 204.655 21.2575 204.12 20.8412C203.61 20.4248 202.928 20.2167 202.077 20.2167C201.347 20.2167 200.787 20.3635 200.397 20.6575C200.008 20.9269 199.814 21.3066 199.814 21.7964C199.814 22.3843 200.118 22.8252 200.725 23.1191C201.358 23.4131 202.333 23.707 203.647 24.0008C205.155 24.3928 206.384 24.7847 207.333 25.1767C208.281 25.5439 209.11 26.1564 209.814 27.0136C210.546 27.8465 210.922 28.9731 210.947 30.3937C210.947 31.5941 210.606 32.6718 209.924 33.627C209.267 34.5578 208.306 35.2926 207.041 35.8314C205.8 36.3703 204.351 36.6398 202.696 36.6398Z" fill="#283A7C"/>
<path d="M233.782 15.8442V36.3455H227.54V33.5533C226.908 34.4596 226.044 35.1944 224.949 35.7578C223.879 36.2966 222.687 36.5659 221.373 36.5659C219.815 36.5659 218.439 36.2232 217.247 35.5373C216.055 34.8269 215.131 33.8104 214.474 32.4877C213.817 31.1651 213.488 29.6099 213.488 27.8218V15.8442H219.693V26.9766C219.693 28.3483 220.046 29.4138 220.751 30.1731C221.457 30.9325 222.406 31.3121 223.598 31.3121C224.815 31.3121 225.776 30.9325 226.482 30.1731C227.189 29.4138 227.54 28.3483 227.54 26.9766V15.8442H233.782Z" fill="#283A7C"/>
<path d="M263.16 15.6238C265.691 15.6238 267.699 16.3953 269.183 17.9384C270.693 19.4815 271.447 21.6248 271.447 24.3681V36.3455H265.241V25.213C265.241 23.8904 264.889 22.874 264.183 22.1636C263.501 21.4289 262.552 21.0614 261.335 21.0614C260.119 21.0614 259.158 21.4289 258.451 22.1636C257.771 22.874 257.43 23.8904 257.43 25.213V36.3455H251.224V25.213C251.224 23.8904 250.872 22.874 250.166 22.1636C249.484 21.4289 248.536 21.0614 247.319 21.0614C246.102 21.0614 245.141 21.4289 244.434 22.1636C243.754 22.874 243.413 23.8904 243.413 25.213V36.3455H237.172V15.8442H243.413V18.4161C244.046 17.5588 244.872 16.8852 245.895 16.3953C246.918 15.881 248.073 15.6238 249.362 15.6238C250.895 15.6238 252.259 15.9544 253.451 16.6158C254.668 17.2771 255.616 18.2202 256.298 19.4449C257.005 18.3181 257.965 17.3996 259.182 16.6893C260.399 15.9789 261.726 15.6238 263.16 15.6238Z" fill="#283A7C"/>
</svg>
