<svg width="192" height="48" viewBox="0 0 192 48" fill="none" xmlns="http://www.w3.org/2000/svg">
<path d="M1.10278 35.598L1.10279 11.866L12.8912 18.4582V29.0717L22.3221 34.4114L31.7528 29.0717V18.4582L43.5413 11.866V35.598L22.3221 47.464L1.10278 35.598Z" fill="#283A7C"/>
<path fill-rule="evenodd" clip-rule="evenodd" d="M6.99703 15.1622L1.10278 11.866L22.3221 0L43.5413 11.866L37.6471 15.1622V32.6315L22.3221 41.5311L6.99701 32.6315L6.99703 15.1622ZM37.0086 15.5193L31.7528 18.4583V18.3923L22.3221 13.0526L12.8912 18.3923V18.4583L7.63556 15.5193V32.2665L22.3221 40.7952L37.0086 32.2665V15.5193Z" fill="url(#paint0_linear_523_2344)"/>
<path d="M54.8394 33.7225V13.7876H58.5739V30.305H67.6276V33.7225H54.8394Z" fill="#283A7C"/>
<path d="M75.6905 34.1212C74.2948 34.1212 73.0406 33.8365 71.9277 33.2668C70.8149 32.6972 69.9378 31.8714 69.2966 30.7892C68.6552 29.7071 68.3346 28.4065 68.3346 26.8877V26.432C68.3346 24.9131 68.6552 23.6126 69.2966 22.5304C69.9378 21.4483 70.8149 20.6224 71.9277 20.0529C73.0406 19.4832 74.2948 19.1985 75.6905 19.1985C77.0864 19.1985 78.3406 19.4832 79.4535 20.0529C80.5663 20.6224 81.4434 21.4483 82.0847 22.5304C82.7259 23.6126 83.0467 24.9131 83.0467 26.432V26.8877C83.0467 28.4065 82.7259 29.7071 82.0847 30.7892C81.4434 31.8714 80.5663 32.6972 79.4535 33.2668C78.3406 33.8365 77.0864 34.1212 75.6905 34.1212ZM75.6905 30.9316C76.7846 30.9316 77.69 30.5804 78.4067 29.8779C79.1235 29.1565 79.4817 28.1312 79.4817 26.8022V26.5175C79.4817 25.1885 79.1235 24.1727 78.4067 23.4702C77.7088 22.7488 76.8034 22.3881 75.6905 22.3881C74.5966 22.3881 73.6912 22.7488 72.9746 23.4702C72.2578 24.1727 71.8995 25.1885 71.8995 26.5175V26.8022C71.8995 28.1312 72.2578 29.1565 72.9746 29.8779C73.6912 30.5804 74.5966 30.9316 75.6905 30.9316Z" fill="#283A7C"/>
<path d="M84.385 26.7168V26.2612C84.385 24.7803 84.6773 23.5177 85.2621 22.4735C85.8467 21.4103 86.6201 20.6034 87.582 20.0529C88.5628 19.4832 89.6285 19.1985 90.779 19.1985C92.0616 19.1985 93.033 19.4264 93.6931 19.882C94.3533 20.3376 94.8343 20.8123 95.136 21.3059H95.6454V19.5971H99.1536V36.2286C99.1536 37.1968 98.8706 37.9657 98.3048 38.5354C97.7389 39.1239 96.9845 39.4182 96.0414 39.4182H86.6483V36.2856H94.7966C95.3246 36.2856 95.5888 36.0008 95.5888 35.4312V31.7574H95.0794C94.8908 32.0612 94.6268 32.3745 94.2873 32.6972C93.9477 33.001 93.4951 33.2573 92.9293 33.4662C92.3634 33.675 91.6466 33.7795 90.779 33.7795C89.6285 33.7795 88.5628 33.5041 87.582 32.9535C86.6201 32.384 85.8467 31.5771 85.2621 30.5329C84.6773 29.4697 84.385 28.1977 84.385 26.7168ZM91.7976 30.6469C92.8915 30.6469 93.8063 30.2956 94.5419 29.5931C95.2776 28.8907 95.6454 27.9034 95.6454 26.6314V26.3466C95.6454 25.0555 95.2776 24.0683 94.5419 23.3848C93.8251 22.6824 92.9104 22.3311 91.7976 22.3311C90.7036 22.3311 89.7887 22.6824 89.0532 23.3848C88.3176 24.0683 87.9498 25.0555 87.9498 26.3466V26.6314C87.9498 27.9034 88.3176 28.8907 89.0532 29.5931C89.7887 30.2956 90.7036 30.6469 91.7976 30.6469Z" fill="#283A7C"/>
<path d="M108.51 34.1212C107.114 34.1212 105.86 33.8365 104.747 33.2668C103.634 32.6972 102.757 31.8714 102.116 30.7892C101.474 29.7071 101.154 28.4065 101.154 26.8877V26.432C101.154 24.9131 101.474 23.6126 102.116 22.5304C102.757 21.4483 103.634 20.6224 104.747 20.0529C105.86 19.4832 107.114 19.1985 108.51 19.1985C109.905 19.1985 111.16 19.4832 112.273 20.0529C113.385 20.6224 114.262 21.4483 114.904 22.5304C115.545 23.6126 115.866 24.9131 115.866 26.432V26.8877C115.866 28.4065 115.545 29.7071 114.904 30.7892C114.262 31.8714 113.385 32.6972 112.273 33.2668C111.16 33.8365 109.905 34.1212 108.51 34.1212ZM108.51 30.9316C109.604 30.9316 110.509 30.5804 111.226 29.8779C111.943 29.1565 112.301 28.1312 112.301 26.8022V26.5175C112.301 25.1885 111.943 24.1727 111.226 23.4702C110.528 22.7488 109.623 22.3881 108.51 22.3881C107.416 22.3881 106.51 22.7488 105.794 23.4702C105.077 24.1727 104.719 25.1885 104.719 26.5175V26.8022C104.719 28.1312 105.077 29.1565 105.794 29.8779C106.51 30.5804 107.416 30.9316 108.51 30.9316Z" fill="#283A7C"/>
<path d="M117.883 33.7226V19.5972H121.448V33.7226H117.883ZM119.665 17.9455C119.024 17.9455 118.477 17.7367 118.025 17.319C117.591 16.9013 117.374 16.3506 117.374 15.6673C117.374 14.9838 117.591 14.4332 118.025 14.0154C118.477 13.5978 119.024 13.3889 119.665 13.3889C120.326 13.3889 120.873 13.5978 121.306 14.0154C121.74 14.4332 121.957 14.9838 121.957 15.6673C121.957 16.3506 121.74 16.9013 121.306 17.319C120.873 17.7367 120.326 17.9455 119.665 17.9455Z" fill="#283A7C"/>
<path d="M124.125 39.4182V19.5971H127.634V21.3059H128.143C128.463 20.7553 128.963 20.2712 129.643 19.8534C130.322 19.4168 131.293 19.1985 132.557 19.1985C133.688 19.1985 134.735 19.4832 135.696 20.0529C136.659 20.6034 137.432 21.4197 138.017 22.502C138.601 23.5842 138.894 24.8942 138.894 26.432V26.8877C138.894 28.4255 138.601 29.7355 138.017 30.8176C137.432 31.8999 136.659 32.7258 135.696 33.2953C134.735 33.8459 133.688 34.1212 132.557 34.1212C131.707 34.1212 130.99 34.0167 130.406 33.8079C129.84 33.6181 129.378 33.3712 129.02 33.0675C128.68 32.7447 128.407 32.422 128.2 32.0992H127.69V39.4182H124.125ZM131.481 30.9886C132.594 30.9886 133.509 30.6373 134.226 29.9348C134.961 29.2134 135.329 28.1692 135.329 26.8022V26.5175C135.329 25.1505 134.961 24.1157 134.226 23.4133C133.49 22.6919 132.575 22.3311 131.481 22.3311C130.387 22.3311 129.472 22.6919 128.737 23.4133C128.001 24.1157 127.634 25.1505 127.634 26.5175V26.8022C127.634 28.1692 128.001 29.2134 128.737 29.9348C129.472 30.6373 130.387 30.9886 131.481 30.9886Z" fill="#283A7C"/>
<path d="M146.722 34.1212C144.892 34.1212 143.393 33.7225 142.223 32.9251C141.055 32.1277 140.347 30.9886 140.101 29.5076L143.384 28.6533C143.516 29.3178 143.733 29.84 144.034 30.2197C144.355 30.5994 144.742 30.8746 145.195 31.0455C145.665 31.1973 146.175 31.2734 146.722 31.2734C147.551 31.2734 148.165 31.1309 148.562 30.8462C148.957 30.5424 149.155 30.1722 149.155 29.7355C149.155 29.2988 148.967 28.9666 148.589 28.7387C148.213 28.4919 147.609 28.2926 146.778 28.1408L145.987 27.9983C145.005 27.8084 144.109 27.5521 143.299 27.2294C142.488 26.8877 141.837 26.4225 141.346 25.834C140.856 25.2453 140.611 24.4859 140.611 23.5556C140.611 22.1507 141.12 21.0781 142.139 20.3376C143.157 19.5782 144.497 19.1985 146.156 19.1985C147.722 19.1985 149.023 19.5498 150.06 20.2522C151.098 20.9547 151.777 21.8755 152.098 23.0146L148.787 24.0398C148.637 23.3184 148.326 22.8057 147.854 22.502C147.401 22.1982 146.835 22.0463 146.156 22.0463C145.477 22.0463 144.959 22.1697 144.6 22.4165C144.242 22.6444 144.063 22.9671 144.063 23.3848C144.063 23.8405 144.251 24.1821 144.629 24.41C145.005 24.6188 145.515 24.7803 146.156 24.8942L146.948 25.0365C148.004 25.2264 148.957 25.4827 149.806 25.8054C150.674 26.1092 151.352 26.5554 151.843 27.144C152.353 27.7136 152.607 28.4919 152.607 29.4792C152.607 30.9601 152.069 32.1087 150.994 32.9251C149.938 33.7225 148.514 34.1212 146.722 34.1212Z" fill="#283A7C"/>
<path d="M159.804 33.9503C158.711 33.9503 157.749 33.7035 156.919 33.21C156.109 32.6973 155.476 31.9948 155.023 31.1025C154.571 30.2102 154.344 29.1849 154.344 28.0269V19.5972H157.909V27.742C157.909 28.8052 158.164 29.6026 158.674 30.1342C159.201 30.6658 159.946 30.9316 160.909 30.9316C162.002 30.9316 162.851 30.5709 163.455 29.8495C164.058 29.109 164.36 28.0838 164.36 26.7738V19.5972H167.925V33.7226H164.416V31.8714H163.908C163.681 32.3461 163.256 32.8112 162.634 33.2668C162.012 33.7226 161.068 33.9503 159.804 33.9503Z" fill="#283A7C"/>
<path d="M170.619 33.7225V19.5971H174.126V21.135H174.636C174.881 20.6603 175.287 20.2522 175.852 19.9104C176.418 19.5498 177.163 19.3694 178.088 19.3694C179.087 19.3694 179.889 19.5687 180.493 19.9674C181.096 20.3471 181.558 20.8502 181.879 21.4767H182.387C182.709 20.8693 183.162 20.3661 183.747 19.9674C184.331 19.5687 185.161 19.3694 186.236 19.3694C187.103 19.3694 187.886 19.5592 188.584 19.9389C189.301 20.2996 189.867 20.8597 190.282 21.6192C190.715 22.3595 190.932 23.2993 190.932 24.4386V33.7225H187.367V24.6949C187.367 23.9164 187.17 23.3373 186.773 22.9576C186.377 22.559 185.821 22.3595 185.104 22.3595C184.294 22.3595 183.661 22.6254 183.208 23.157C182.775 23.6696 182.558 24.41 182.558 25.3784V33.7225H178.993V24.6949C178.993 23.9164 178.795 23.3373 178.399 22.9576C178.003 22.559 177.447 22.3595 176.729 22.3595C175.918 22.3595 175.287 22.6254 174.834 23.157C174.4 23.6696 174.183 24.41 174.183 25.3784V33.7225H170.619Z" fill="#283A7C"/>
<defs>
<linearGradient id="paint0_linear_523_2344" x1="6.99701" y1="9.22911" x2="38.8259" y2="9.22912" gradientUnits="userSpaceOnUse">
<stop stop-color="#64C2DB"/>
<stop offset="0.307292" stop-color="#7476ED"/>
<stop offset="0.604167" stop-color="#C994DF"/>
<stop offset="1" stop-color="#E56F8C"/>
</linearGradient>
</defs>
</svg>
