<svg width="256" height="48" viewBox="0 0 256 48" fill="none" xmlns="http://www.w3.org/2000/svg">
<g clip-path="url(#clip0_523_2320)">
<path d="M17.2542 39.6712C12.3222 44.6138 3.9693 44.5942 1.63655 38.0067C1.17984 36.717 0.814672 35.3909 0.546095 34.0378C-0.550498 28.5128 0.0123139 22.7863 2.16336 17.5819C4.31441 12.3777 7.95707 7.92953 12.6307 4.79997C17.3044 1.6704 22.7992 -2.41299e-07 28.4201 0C34.0411 2.41299e-07 39.5358 1.6704 44.2094 4.79997C48.8831 7.92953 52.5257 12.3777 54.6768 17.5821C56.8279 22.7863 57.3906 28.5128 56.2941 34.0378C56.0255 35.3909 55.6603 36.717 55.2035 38.0067C52.8708 44.5942 44.5179 44.6138 39.5859 39.6712L31.9726 32.0415C31.2452 31.3126 31.3204 30.1104 31.521 29.0994C31.6429 28.4849 31.5803 27.8478 31.341 27.2688C31.1017 26.6898 30.6965 26.1949 30.1766 25.8468C29.6567 25.4988 29.0454 25.3129 28.4201 25.3129C27.7948 25.3129 27.1836 25.4988 26.6636 25.8468C26.1435 26.1949 25.7384 26.6898 25.4991 27.2688C25.2598 27.8478 25.1972 28.4849 25.3192 29.0994C25.5199 30.1104 25.5949 31.3126 24.8675 32.0415L17.2542 39.6712Z" fill="url(#paint0_linear_523_2320)"/>
<path d="M79.962 32.8332H87.6012V37.3447H74.1302V13.3521H79.962V32.8332Z" fill="#283A7C"/>
<path d="M98.0222 37.6182C96.1579 37.6182 94.4754 37.2194 92.9747 36.422C91.497 35.6245 90.326 34.4853 89.4621 33.0042C88.6209 31.5232 88.2003 29.7915 88.2003 27.8091C88.2003 25.8497 88.6322 24.1293 89.4961 22.6483C90.3602 21.1446 91.5425 19.9939 93.0429 19.1964C94.5436 18.399 96.2261 18.0002 98.0904 18.0002C99.9548 18.0002 101.637 18.399 103.138 19.1964C104.638 19.9939 105.821 21.1446 106.685 22.6483C107.549 24.1293 107.981 25.8497 107.981 27.8091C107.981 29.7687 107.537 31.5003 106.651 33.0042C105.787 34.4853 104.593 35.6245 103.07 36.422C101.569 37.2194 99.8866 37.6182 98.0222 37.6182ZM98.0222 32.5598C99.1362 32.5598 100.08 32.1498 100.853 31.3295C101.649 30.5092 102.047 29.3359 102.047 27.8091C102.047 26.2826 101.66 25.1092 100.887 24.2889C100.137 23.4686 99.2045 23.0585 98.0904 23.0585C96.9536 23.0585 96.0101 23.4686 95.2597 24.2889C94.5094 25.0864 94.1343 26.2597 94.1343 27.8091C94.1343 29.3359 94.4982 30.5092 95.2257 31.3295C95.9761 32.1498 96.9082 32.5598 98.0222 32.5598Z" fill="#283A7C"/>
<path d="M117.281 18.0002C118.623 18.0002 119.794 18.2737 120.794 18.8205C121.817 19.3673 122.602 20.0851 123.147 20.9736V18.2737H128.979V37.3105C128.979 39.065 128.627 40.6486 127.922 42.0612C127.24 43.4967 126.183 44.6359 124.75 45.4789C123.341 46.3221 121.579 46.7436 119.464 46.7436C116.645 46.7436 114.36 46.0715 112.609 44.7271C110.859 43.4055 109.858 41.6055 109.608 39.327H115.372C115.553 40.0561 115.986 40.6258 116.668 41.0359C117.35 41.4688 118.191 41.6853 119.191 41.6853C120.396 41.6853 121.351 41.3321 122.056 40.6258C122.784 39.9422 123.147 38.8372 123.147 37.3105V34.6106C122.579 35.4991 121.795 36.2283 120.794 36.7979C119.794 37.3447 118.623 37.6182 117.281 37.6182C115.713 37.6182 114.292 37.2194 113.018 36.422C111.745 35.6017 110.733 34.451 109.983 32.97C109.256 31.4662 108.892 29.7346 108.892 27.775C108.892 25.8155 109.256 24.0953 109.983 22.6142C110.733 21.1332 111.745 19.9939 113.018 19.1964C114.292 18.399 115.713 18.0002 117.281 18.0002ZM123.147 27.8091C123.147 26.3509 122.738 25.2002 121.92 24.3573C121.124 23.5143 120.146 23.0927 118.987 23.0927C117.827 23.0927 116.838 23.5143 116.02 24.3573C115.224 25.1776 114.826 26.3168 114.826 27.775C114.826 29.2332 115.224 30.3953 116.02 31.2612C116.838 32.1041 117.827 32.5257 118.987 32.5257C120.146 32.5257 121.124 32.1041 121.92 31.2612C122.738 30.418 123.147 29.2675 123.147 27.8091Z" fill="#283A7C"/>
<path d="M140.837 37.6182C138.973 37.6182 137.291 37.2194 135.79 36.422C134.312 35.6245 133.141 34.4853 132.277 33.0042C131.436 31.5232 131.016 29.7915 131.016 27.8091C131.016 25.8497 131.447 24.1293 132.312 22.6483C133.175 21.1446 134.358 19.9939 135.858 19.1964C137.359 18.399 139.041 18.0002 140.906 18.0002C142.77 18.0002 144.453 18.399 145.953 19.1964C147.454 19.9939 148.636 21.1446 149.5 22.6483C150.364 24.1293 150.796 25.8497 150.796 27.8091C150.796 29.7687 150.353 31.5003 149.466 33.0042C148.602 34.4853 147.408 35.6245 145.885 36.422C144.384 37.2194 142.702 37.6182 140.837 37.6182ZM140.837 32.5598C141.951 32.5598 142.895 32.1498 143.668 31.3295C144.464 30.5092 144.862 29.3359 144.862 27.8091C144.862 26.2826 144.475 25.1092 143.702 24.2889C142.952 23.4686 142.02 23.0585 140.906 23.0585C139.769 23.0585 138.825 23.4686 138.075 24.2889C137.325 25.0864 136.95 26.2597 136.95 27.8091C136.95 29.3359 137.313 30.5092 138.041 31.3295C138.791 32.1498 139.723 32.5598 140.837 32.5598Z" fill="#283A7C"/>
<path d="M155.8 16.2914C154.776 16.2914 153.935 15.9952 153.276 15.4028C152.639 14.7876 152.321 14.0356 152.321 13.147C152.321 12.2356 152.639 11.4837 153.276 10.8913C153.935 10.2761 154.776 9.96851 155.8 9.96851C156.8 9.96851 157.619 10.2761 158.255 10.8913C158.914 11.4837 159.244 12.2356 159.244 13.147C159.244 14.0356 158.914 14.7876 158.255 15.4028C157.619 15.9952 156.8 16.2914 155.8 16.2914ZM158.698 18.2737V37.3448H152.867V18.2737H158.698Z" fill="#283A7C"/>
<path d="M167.733 20.9736C168.301 20.0851 169.086 19.3673 170.086 18.8205C171.087 18.2737 172.258 18.0002 173.599 18.0002C175.168 18.0002 176.589 18.399 177.862 19.1964C179.136 19.9939 180.136 21.1332 180.863 22.6142C181.613 24.0953 181.99 25.8155 181.99 27.775C181.99 29.7346 181.613 31.4662 180.863 32.97C180.136 34.451 179.136 35.6017 177.862 36.422C176.589 37.2194 175.168 37.6182 173.599 37.6182C172.28 37.6182 171.11 37.3447 170.086 36.7979C169.086 36.251 168.301 35.5447 167.733 34.6789V46.4359H161.902V18.2737H167.733V20.9736ZM176.055 27.775C176.055 26.3168 175.646 25.1776 174.827 24.3573C174.03 23.5143 173.043 23.0927 171.86 23.0927C170.701 23.0927 169.711 23.5143 168.892 24.3573C168.098 25.2002 167.7 26.3509 167.7 27.8091C167.7 29.2675 168.098 30.418 168.892 31.2612C169.711 32.1041 170.701 32.5257 171.86 32.5257C173.02 32.5257 174.009 32.1041 174.827 31.2612C175.646 30.3953 176.055 29.2332 176.055 27.775Z" fill="#283A7C"/>
<path d="M191.767 37.6182C190.107 37.6182 188.629 37.3333 187.333 36.7638C186.038 36.1941 185.014 35.4194 184.264 34.4396C183.514 33.437 183.093 32.3206 183.002 31.0902H188.766C188.834 31.7509 189.141 32.2864 189.686 32.6965C190.233 33.1067 190.903 33.3117 191.699 33.3117C192.426 33.3117 192.983 33.175 193.369 32.9016C193.779 32.6055 193.984 32.2294 193.984 31.7738C193.984 31.2269 193.7 30.8282 193.131 30.5776C192.563 30.3041 191.642 30.008 190.368 29.6889C189.004 29.37 187.868 29.0396 186.958 28.6978C186.049 28.3333 185.265 27.775 184.606 27.0231C183.945 26.2485 183.616 25.2117 183.616 23.913C183.616 22.8193 183.912 21.8282 184.503 20.9395C185.116 20.0282 186.003 19.3103 187.162 18.7863C188.345 18.2623 189.744 18.0002 191.358 18.0002C193.744 18.0002 195.62 18.5926 196.985 19.7774C198.372 20.9623 199.168 22.5344 199.373 24.494H193.984C193.893 23.8332 193.597 23.3092 193.097 22.9217C192.619 22.5344 191.983 22.3408 191.187 22.3408C190.505 22.3408 189.982 22.4775 189.618 22.7509C189.255 23.0015 189.073 23.3547 189.073 23.8104C189.073 24.3573 189.357 24.7674 189.926 25.0409C190.517 25.3143 191.425 25.5877 192.654 25.861C194.063 26.2256 195.211 26.5903 196.098 26.9547C196.985 27.2965 197.758 27.8661 198.417 28.6637C199.099 29.4383 199.452 30.4864 199.475 31.808C199.475 32.9244 199.156 33.927 198.519 34.8156C197.906 35.6815 197.008 36.365 195.825 36.8662C194.666 37.3676 193.313 37.6182 191.767 37.6182Z" fill="#283A7C"/>
<path d="M220.811 18.2737V37.3447H214.979V34.7473C214.388 35.5903 213.58 36.2738 212.558 36.7979C211.557 37.2992 210.444 37.5498 209.215 37.5498C207.76 37.5498 206.475 37.2309 205.362 36.5928C204.247 35.9321 203.383 34.9865 202.77 33.7562C202.156 32.5257 201.849 31.0789 201.849 29.4155V18.2737H207.646V28.6294C207.646 29.9054 207.976 30.8965 208.635 31.6029C209.294 32.3092 210.181 32.6624 211.296 32.6624C212.432 32.6624 213.331 32.3092 213.99 31.6029C214.649 30.8965 214.979 29.9054 214.979 28.6294V18.2737H220.811Z" fill="#283A7C"/>
<path d="M248.259 18.0686C250.622 18.0686 252.499 18.7863 253.886 20.2218C255.295 21.6572 256 23.6508 256 26.2028V37.3447H250.203V26.989C250.203 25.7585 249.873 24.8129 249.214 24.1522C248.576 23.4686 247.691 23.1268 246.553 23.1268C245.416 23.1268 244.518 23.4686 243.859 24.1522C243.223 24.8129 242.904 25.7585 242.904 26.989V37.3447H237.106V26.989C237.106 25.7585 236.777 24.8129 236.118 24.1522C235.48 23.4686 234.593 23.1268 233.457 23.1268C232.321 23.1268 231.422 23.4686 230.763 24.1522C230.126 24.8129 229.809 25.7585 229.809 26.989V37.3447H223.977V18.2737H229.809V20.6661C230.4 19.8686 231.173 19.242 232.128 18.7863C233.082 18.3078 234.162 18.0686 235.366 18.0686C236.8 18.0686 238.073 18.3761 239.187 18.9914C240.323 19.6066 241.21 20.4838 241.847 21.6231C242.506 20.5749 243.405 19.7205 244.541 19.0597C245.677 18.399 246.918 18.0686 248.259 18.0686Z" fill="#283A7C"/>
</g>
<defs>
<linearGradient id="paint0_linear_523_2320" x1="54.2532" y1="14.2407" x2="3.80758" y2="14.2407" gradientUnits="userSpaceOnUse">
<stop stop-color="#64C2DB"/>
<stop offset="0.510417" stop-color="#7476ED"/>
<stop offset="1" stop-color="#E56F8C"/>
</linearGradient>
<clipPath id="clip0_523_2320">
<rect width="256" height="48" fill="white"/>
</clipPath>
</defs>
</svg>
